<svg width="30" height="30" viewBox="0 0 30 30" fill="none" xmlns="http://www.w3.org/2000/svg">
<g clip-path="url(#clip0_1109_3848)">
<mask id="mask0_1109_3848" style="mask-type:luminance" maskUnits="userSpaceOnUse" x="0" y="0" width="30" height="30">
<path d="M30 0H0V30H30V0Z" fill="white"/>
</mask>
<g mask="url(#mask0_1109_3848)">
<path d="M22.7637 0H7.2363C3.23999 0 0 3.23999 0 7.2363V22.7637C0 26.76 3.23999 30 7.2363 30H22.7637C26.76 30 30 26.76 30 22.7637V7.2363C30 3.23999 26.76 0 22.7637 0Z" fill="#FF0303"/>
<path style="mix-blend-mode:multiply" opacity="0.5" d="M22.7637 0H7.2363C3.23999 0 0 3.23999 0 7.2363V22.7637C0 26.76 3.23999 30 7.2363 30H22.7637C26.76 30 30 26.76 30 22.7637V7.2363C30 3.23999 26.76 0 22.7637 0Z" fill="url(#paint0_linear_1109_3848)"/>
<g filter="url(#filter0_d_1109_3848)">
<path d="M28.3251 6.96521C28.3943 6.96277 28.4593 6.92211 28.4813 6.85623C28.5057 6.78223 28.5032 6.71147 28.4813 6.64967C28.4577 6.58298 28.3934 6.53906 28.3227 6.53662C27.59 6.51141 26.8963 6.33087 26.2757 6.02509C25.2567 5.56003 24.4398 4.74279 23.9751 3.72359C23.6653 3.09396 23.4913 2.40628 23.4643 1.7051C23.4595 1.59125 23.3651 1.50179 23.2513 1.50098H23.2464C23.1325 1.50098 23.0382 1.59125 23.0333 1.7051C23.0066 2.40667 22.8323 3.09472 22.5218 3.7244C22.0582 4.74097 21.2385 5.56154 20.2211 6.02428C19.6055 6.32762 18.9199 6.50816 18.1945 6.53581C18.1034 6.53906 18.0221 6.60168 18.0042 6.69114C17.996 6.73099 17.996 6.77247 18.0042 6.81638V6.81801C18.0229 6.90503 18.1042 6.96277 18.1928 6.96602H18.1733C18.9061 6.99042 19.5998 7.17177 20.2203 7.47756C21.2393 7.94262 22.0563 8.75985 22.521 9.77905C22.8307 10.4087 23.0047 11.0964 23.0317 11.7975C23.0366 11.9114 23.1309 12.0009 23.2448 12.0017H23.2496C23.3635 12.0017 23.4578 11.9114 23.4627 11.7975C23.4895 11.096 23.6638 10.4079 23.9742 9.77824C24.4378 8.76168 25.2576 7.94111 26.2749 7.47837C26.8906 7.17503 27.5761 6.99448 28.3016 6.96683H28.3235L28.3251 6.96521Z" fill="white"/>
</g>
<g filter="url(#filter1_d_1109_3848)">
<path d="M12.7464 32.3648C12.0999 32.3648 11.5762 31.8411 11.5762 31.1946C11.5762 30.548 12.0999 30.0243 12.7464 30.0243C17.8911 30.0243 22.076 25.8393 22.076 20.6947C22.076 20.0481 22.5998 19.5244 23.2463 19.5244C23.8928 19.5244 24.4166 20.0481 24.4166 20.6947C24.4166 27.1299 19.1809 32.3648 12.7464 32.3648Z" fill="white"/>
</g>
<path d="M12.7464 32.3648C12.0999 32.3648 11.5762 31.8411 11.5762 31.1946C11.5762 30.548 12.0999 30.0243 12.7464 30.0243C17.8911 30.0243 22.076 25.8393 22.076 20.6947C22.076 20.0481 22.5998 19.5244 23.2463 19.5244C23.8928 19.5244 24.4166 20.0481 24.4166 20.6947C24.4166 27.1299 19.1809 32.3648 12.7464 32.3648Z" fill="url(#paint1_linear_1109_3848)" fill-opacity="0.4"/>
<g filter="url(#filter2_d_1109_3848)">
<path d="M28.3271 6.96423C28.3963 6.96179 28.4613 6.92113 28.4833 6.85525C28.5077 6.78125 28.5052 6.7105 28.4833 6.64869C28.4597 6.582 28.3954 6.53809 28.3247 6.53565C27.592 6.51044 26.8981 6.32989 26.2776 6.02411C25.2586 5.55905 24.4417 4.74181 23.977 3.72261C23.6672 3.09299 23.4932 2.4053 23.4662 1.70413C23.4614 1.59027 23.3671 1.50081 23.2533 1.5H23.2484C23.1345 1.5 23.0402 1.59027 23.0353 1.70413C23.0086 2.40569 22.8343 3.09374 22.5238 3.72343C22.0602 4.73999 21.2404 5.56056 20.223 6.0233C19.6074 6.32664 18.9218 6.50718 18.1964 6.53483C18.1053 6.53809 18.024 6.60071 18.0061 6.69017C17.9979 6.73001 17.9979 6.77149 18.0061 6.81541V6.81703C18.0248 6.90405 18.1062 6.96179 18.1948 6.96504H18.1752C18.908 6.98944 19.6018 7.1708 20.2223 7.47658C21.2413 7.94164 22.0582 8.75888 22.5229 9.77808C22.8326 10.4077 23.0066 11.0954 23.0336 11.7966C23.0385 11.9104 23.1329 11.9999 23.2468 12.0007H23.2515C23.3654 12.0007 23.4597 11.9104 23.4646 11.7966C23.4914 11.095 23.6658 10.407 23.9762 9.77726C24.4398 8.7607 25.2595 7.94013 26.2769 7.47739C26.8926 7.17405 27.5781 6.99351 28.3035 6.96586H28.3254L28.3271 6.96423Z" fill="url(#paint2_linear_1109_3848)"/>
</g>
<path d="M22.3564 14.0626C22.1783 13.9869 21.9888 13.9503 21.7928 13.9479H21.7847C21.5667 13.9503 21.3561 13.9918 21.1568 14.0756C20.9633 14.1569 20.7901 14.274 20.6412 14.422C20.493 14.5696 20.3745 14.7444 20.2924 14.9368C20.207 15.136 20.1639 15.3483 20.1622 15.5679V15.576C20.1639 15.798 20.2078 16.0135 20.294 16.216C20.3769 16.412 20.4957 16.5877 20.6461 16.739C20.7966 16.8902 20.9722 17.0098 21.1674 17.0935C21.3691 17.1806 21.5846 17.2261 21.8058 17.2285H21.8245C22.0685 17.2253 22.3027 17.1708 22.5207 17.0651C22.7256 16.965 22.9053 16.826 23.055 16.6511L22.6459 16.3234C22.5465 16.4395 22.4245 16.5342 22.2873 16.6015C22.1393 16.6739 21.9807 16.7129 21.8156 16.7129C21.6879 16.7129 21.5635 16.6902 21.4447 16.6479C21.3301 16.6072 21.2227 16.5487 21.1268 16.473C21.0316 16.3982 20.9495 16.3096 20.882 16.2087C20.8137 16.1063 20.7624 15.994 20.7307 15.8761L20.725 15.8558H23.2436L23.2469 15.4052C23.2469 15.2084 23.2087 15.0181 23.1322 14.8384C23.059 14.6652 22.9541 14.509 22.8208 14.3757C22.6881 14.2426 22.531 14.1366 22.358 14.0634M20.7161 15.3369L20.7209 15.3166C20.7776 15.0824 20.9107 14.8738 21.0991 14.7237C21.1926 14.6489 21.2975 14.5912 21.4098 14.5505C21.5261 14.509 21.648 14.4879 21.7733 14.4879C22.0043 14.4879 22.2246 14.5741 22.3946 14.7278C22.5638 14.8815 22.6695 15.0913 22.6931 15.319L22.6947 15.3369H20.7161ZM16.3709 13.9471C15.469 13.9471 14.7362 14.6725 14.7281 15.5719V18.7599H15.2803V16.7203C15.556 17.0106 15.9358 17.2009 16.3595 17.2302H16.3709C17.2776 17.2302 18.0128 16.4958 18.0128 15.589C18.0128 14.7262 17.3468 14.0195 16.501 13.9528C16.4961 13.9528 16.4701 13.9503 16.4676 13.9503C16.4359 13.9487 16.4026 13.9471 16.3709 13.9471ZM17.4525 15.6346C17.4525 16.2315 16.9686 16.7154 16.3717 16.7154C15.7748 16.7154 15.2909 16.2315 15.2909 15.6346C15.2909 15.6207 15.2909 15.6061 15.2917 15.5923C15.2917 15.5785 15.2909 15.5638 15.2909 15.55C15.2909 14.9531 15.7748 14.4692 16.3717 14.4692C16.9686 14.4692 17.4525 14.9531 17.4525 15.55V15.6346ZM9.02556 16.5722V15.2312H10.7985V14.6961H9.02556V13.3835H11.0205V12.8191H8.46116V17.1366H11.1758V16.5722H9.02556ZM14.4841 14.0357H13.8303L12.9552 15.1726L12.0793 14.0357H11.4255L12.6202 15.5866L11.4255 17.1366H12.0793L12.9552 16.0005L13.8303 17.1366H14.4841L13.2895 15.5866L14.4841 14.0357ZM25.6004 15.585C25.5069 15.5142 25.3979 15.4573 25.2735 15.415C25.1448 15.3717 25.0133 15.3372 24.8799 15.3117C24.7774 15.2938 24.6782 15.2719 24.5831 15.245C24.4871 15.2182 24.4025 15.1873 24.3293 15.1515C24.2561 15.1157 24.1984 15.0751 24.1561 15.0279C24.1138 14.9815 24.0927 14.9246 24.0927 14.8579C24.0927 14.7872 24.1114 14.7237 24.1496 14.6676C24.1873 14.6126 24.236 14.5661 24.2927 14.531C24.3505 14.4952 24.4164 14.4692 24.4895 14.4513C24.5627 14.4334 24.6351 14.4245 24.7067 14.4245H24.7473C24.876 14.4291 25.0018 14.4634 25.1151 14.5246C25.2284 14.5859 25.326 14.6723 25.4004 14.7774L25.8127 14.4993C25.693 14.3278 25.5336 14.1879 25.3481 14.0915C25.1625 13.995 24.9564 13.9449 24.7473 13.9454C24.5936 13.9454 24.4521 13.9658 24.3139 14.0056C24.1764 14.0455 24.052 14.1032 23.9406 14.1789C23.8292 14.2545 23.7405 14.3496 23.6739 14.4651C23.6072 14.5806 23.5738 14.714 23.5738 14.8652C23.5738 15.0254 23.6039 15.1564 23.6641 15.2588C23.723 15.36 23.8053 15.4456 23.904 15.5085C24.004 15.5728 24.1203 15.6256 24.2537 15.6655C24.3871 15.7053 24.527 15.7411 24.6742 15.772C24.7587 15.7899 24.8409 15.8094 24.9206 15.8322C25.0003 15.8541 25.0718 15.8842 25.1336 15.9225C25.1926 15.9572 25.2438 16.0037 25.2841 16.0591C25.3215 16.1128 25.341 16.1811 25.341 16.2657C25.341 16.3502 25.3207 16.4226 25.2808 16.482C25.241 16.5422 25.1873 16.5918 25.1206 16.6324C25.0539 16.6723 24.9799 16.7016 24.8978 16.7186C24.8222 16.7349 24.7473 16.7438 24.6742 16.7455C24.3375 16.7455 24.0439 16.5844 23.8633 16.338L23.4453 16.6625C23.7414 17.0057 24.1813 17.2237 24.6709 17.2253C24.8222 17.222 24.9669 17.2041 25.1092 17.1708C25.2581 17.135 25.3923 17.0781 25.5094 17.0008C25.6273 16.9228 25.7216 16.8219 25.7932 16.6975C25.8639 16.5731 25.8997 16.4218 25.8997 16.2437C25.8997 16.0884 25.8729 15.9574 25.82 15.8501C25.768 15.7455 25.6926 15.6542 25.5996 15.5833M28.5062 15.8517C28.4541 15.7471 28.3787 15.6558 28.2858 15.585C28.1923 15.5142 28.0833 15.4573 27.9589 15.415C27.8302 15.3717 27.6987 15.3372 27.5653 15.3117C27.4628 15.2938 27.3636 15.2719 27.2684 15.245C27.1725 15.2182 27.0879 15.1873 27.0147 15.1515C26.9415 15.1157 26.8829 15.0751 26.8407 15.0279C26.7984 14.9815 26.7772 14.9246 26.7772 14.8579C26.7772 14.7872 26.7959 14.7237 26.8341 14.6676C26.8716 14.6123 26.9195 14.5668 26.9773 14.531C27.035 14.4952 27.1009 14.4692 27.1741 14.4513C27.2583 14.4304 27.3452 14.4216 27.4319 14.4253C27.5605 14.43 27.6864 14.4642 27.7996 14.5255C27.9129 14.5867 28.0105 14.6732 28.0849 14.7782V14.7766L28.4972 14.5001H28.4956L28.4972 14.4976C28.3771 14.3268 28.2175 14.1874 28.0321 14.0913C27.8466 13.9952 27.6408 13.9452 27.4319 13.9454H27.4254C27.279 13.9454 27.1367 13.9658 26.9984 14.0056C26.861 14.0455 26.7366 14.1032 26.6251 14.1789C26.5137 14.2545 26.4251 14.3496 26.3584 14.4651C26.2917 14.5806 26.2584 14.714 26.2584 14.8652C26.2584 15.0254 26.2885 15.1564 26.3486 15.2588C26.4076 15.36 26.4898 15.4456 26.5885 15.5085C26.6886 15.5728 26.8049 15.6256 26.9391 15.6655C27.0724 15.7053 27.2123 15.7411 27.3595 15.772C27.4441 15.7899 27.5262 15.8094 27.6067 15.8322C27.6864 15.8541 27.758 15.8842 27.8198 15.9225C27.8788 15.9572 27.93 16.0037 27.9703 16.0591C28.0077 16.1128 28.0272 16.1811 28.0272 16.2657C28.0272 16.3502 28.0069 16.4226 27.967 16.482C27.9272 16.5422 27.8735 16.5918 27.8068 16.6324C27.7401 16.6723 27.6661 16.7016 27.584 16.7186C27.5083 16.7349 27.4343 16.7438 27.3603 16.7455H27.3538C27.0236 16.7455 26.7292 16.5844 26.5487 16.338L26.1307 16.6625C26.4267 17.0057 26.8659 17.2237 27.3563 17.2253V17.2237C27.5075 17.222 27.6523 17.2041 27.7946 17.1708C27.9434 17.135 28.0776 17.0781 28.1947 17.0008C28.3126 16.9228 28.4078 16.8219 28.4785 16.6975C28.5493 16.5731 28.5851 16.4218 28.5851 16.2437C28.5851 16.0884 28.5582 15.9574 28.5054 15.8501M18.9659 14.0284H18.4137V15.5077C18.4137 15.5313 18.4129 15.5557 18.4129 15.5793V17.1366H18.9659V15.5809C18.9659 14.9791 19.4531 14.492 20.0525 14.4911V13.9373C19.6385 13.9373 19.2579 14.0935 18.9659 14.3496V14.0284ZM5.79044 12.8191H6.34264V17.1358H5.79044V12.8191ZM3.81262 12.8167H3.24334L1.58594 17.1366H2.12675L2.52524 16.0997H4.53072L4.92921 17.1366H5.47002L3.81262 12.8167ZM2.7432 15.5313L3.5288 13.4843L4.31358 15.5313H2.7432ZM7.12174 14.0544H7.67393V17.1366H7.12174V14.0544ZM7.39743 12.2246C7.38442 12.2246 7.37384 12.2352 7.37384 12.249C7.37384 12.6939 7.01357 13.0566 6.57117 13.0566C6.56469 13.0566 6.55849 13.0591 6.55391 13.0637C6.54934 13.0683 6.54677 13.0745 6.54677 13.081C6.54677 13.094 6.55734 13.1054 6.57117 13.1054C7.01357 13.1054 7.37384 13.4673 7.37384 13.9129C7.37384 13.9259 7.38442 13.9373 7.39743 13.9373C7.41044 13.9373 7.42101 13.9267 7.42101 13.9129C7.42264 13.4697 7.7821 13.1086 8.22369 13.1086C8.2367 13.1086 8.24727 13.098 8.24727 13.0842C8.24727 13.0704 8.2367 13.0598 8.22369 13.0598C7.78128 13.0598 7.42101 12.6979 7.42101 12.2523V12.2498C7.42101 12.2433 7.41857 12.2376 7.41369 12.2327C7.4115 12.2304 7.40885 12.2286 7.40591 12.2273C7.40297 12.2261 7.39981 12.2254 7.39661 12.2254" fill="white"/>
<path style="mix-blend-mode:screen" opacity="0.5" d="M22.7637 0H7.2363C3.23999 0 0 3.23999 0 7.2363V22.7637C0 26.76 3.23999 30 7.2363 30H22.7637C26.76 30 30 26.76 30 22.7637V7.2363C30 3.23999 26.76 0 22.7637 0Z" fill="url(#paint3_linear_1109_3848)"/>
</g>
</g>
<defs>
<filter id="filter0_d_1109_3848" x="4.17805" y="-5.40902" width="38.14" height="38.1405" filterUnits="userSpaceOnUse" color-interpolation-filters="sRGB">
<feFlood flood-opacity="0" result="BackgroundImageFix"/>
<feColorMatrix in="SourceAlpha" type="matrix" values="0 0 0 0 0 0 0 0 0 0 0 0 0 0 0 0 0 0 127 0" result="hardAlpha"/>
<feOffset dy="6.91"/>
<feGaussianBlur stdDeviation="6.91"/>
<feColorMatrix type="matrix" values="0 0 0 0 0.168627 0 0 0 0 0.74902 0 0 0 0 0.509804 0 0 0 0.15 0"/>
<feBlend mode="normal" in2="BackgroundImageFix" result="effect1_dropShadow_1109_3848"/>
<feBlend mode="normal" in="SourceGraphic" in2="effect1_dropShadow_1109_3848" result="shape"/>
</filter>
<filter id="filter1_d_1109_3848" x="-2.24383" y="12.6144" width="40.4798" height="40.4803" filterUnits="userSpaceOnUse" color-interpolation-filters="sRGB">
<feFlood flood-opacity="0" result="BackgroundImageFix"/>
<feColorMatrix in="SourceAlpha" type="matrix" values="0 0 0 0 0 0 0 0 0 0 0 0 0 0 0 0 0 0 127 0" result="hardAlpha"/>
<feOffset dy="6.91"/>
<feGaussianBlur stdDeviation="6.91"/>
<feColorMatrix type="matrix" values="0 0 0 0 0.168627 0 0 0 0 0.74902 0 0 0 0 0.509804 0 0 0 0.15 0"/>
<feBlend mode="normal" in2="BackgroundImageFix" result="effect1_dropShadow_1109_3848"/>
<feBlend mode="normal" in="SourceGraphic" in2="effect1_dropShadow_1109_3848" result="shape"/>
</filter>
<filter id="filter2_d_1109_3848" x="4.18" y="-5.41" width="38.14" height="38.1405" filterUnits="userSpaceOnUse" color-interpolation-filters="sRGB">
<feFlood flood-opacity="0" result="BackgroundImageFix"/>
<feColorMatrix in="SourceAlpha" type="matrix" values="0 0 0 0 0 0 0 0 0 0 0 0 0 0 0 0 0 0 127 0" result="hardAlpha"/>
<feOffset dy="6.91"/>
<feGaussianBlur stdDeviation="6.91"/>
<feColorMatrix type="matrix" values="0 0 0 0 0.168627 0 0 0 0 0.74902 0 0 0 0 0.509804 0 0 0 0.15 0"/>
<feBlend mode="normal" in2="BackgroundImageFix" result="effect1_dropShadow_1109_3848"/>
<feBlend mode="normal" in="SourceGraphic" in2="effect1_dropShadow_1109_3848" result="shape"/>
</filter>
<linearGradient id="paint0_linear_1109_3848" x1="5.39185" y1="27.6847" x2="25.7735" y2="0.776655" gradientUnits="userSpaceOnUse">
<stop stop-color="#FF0303"/>
<stop offset="0.61" stop-color="#FF3001" stop-opacity="0.42"/>
<stop offset="1" stop-color="#FF4E00" stop-opacity="0.04"/>
</linearGradient>
<linearGradient id="paint1_linear_1109_3848" x1="11.5762" y1="25.9442" x2="24.4166" y2="25.9442" gradientUnits="userSpaceOnUse">
<stop stop-color="#AFD1D1"/>
<stop offset="0.2" stop-color="#C3D8D7"/>
<stop offset="0.81" stop-color="#FFECE9"/>
</linearGradient>
<linearGradient id="paint2_linear_1109_3848" x1="18.0013" y1="6.75035" x2="28.5012" y2="6.75035" gradientUnits="userSpaceOnUse">
<stop stop-color="#AFD1D1"/>
<stop offset="0.2" stop-color="#C3D8D7"/>
<stop offset="0.81" stop-color="#FFECE9"/>
</linearGradient>
<linearGradient id="paint3_linear_1109_3848" x1="3.04562" y1="28.0905" x2="34.7478" y2="-6.62393" gradientUnits="userSpaceOnUse">
<stop offset="0.06" stop-color="#FFB645" stop-opacity="0.04"/>
<stop offset="0.14" stop-color="#FFB443" stop-opacity="0.07"/>
<stop offset="0.28" stop-color="#FFB13D" stop-opacity="0.17"/>
<stop offset="0.44" stop-color="#FFAD34" stop-opacity="0.32"/>
<stop offset="0.63" stop-color="#FFA628" stop-opacity="0.52"/>
<stop offset="0.84" stop-color="#FF9D19" stop-opacity="0.79"/>
<stop offset="1" stop-color="#FF970D"/>
</linearGradient>
<clipPath id="clip0_1109_3848">
<rect width="30" height="30" fill="white"/>
</clipPath>
</defs>
</svg>
