<svg width="30" height="30" viewBox="0 0 30 30" fill="none" xmlns="http://www.w3.org/2000/svg">
<g clip-path="url(#clip0_1110_3891)">
<path d="M22.8362 29.8018H7.12869C3.28217 29.8018 0.164062 26.6836 0.164062 22.8371V7.12967C0.164062 3.28315 3.28217 0.165039 7.12869 0.165039H22.8362C26.6827 0.165039 29.8008 3.28315 29.8008 7.12967V22.8371C29.8008 26.6836 26.6827 29.8018 22.8362 29.8018Z" fill="#D2AF76"/>
<path d="M25.4939 16.0752C22.6474 18.1774 18.5121 19.2934 14.9564 19.2934C9.97314 19.2934 5.48318 17.4507 2.09175 14.3879C1.8237 14.1455 2.06574 13.8169 2.38581 14.0072C6.05418 16.1355 10.5787 17.4247 15.2593 17.4247C18.417 17.4247 21.8864 16.7671 25.0786 15.4176C25.5545 15.2013 25.9612 15.7291 25.4939 16.0752ZM26.6794 14.7254C26.3161 14.2581 24.2742 14.5005 23.3485 14.6128C23.0716 14.6474 23.0284 14.405 23.2794 14.2236C24.9058 13.0816 27.579 13.4102 27.8905 13.7909C28.202 14.1801 27.8039 16.8533 26.2812 18.134C26.0478 18.3329 25.8229 18.2291 25.9266 17.9697C26.2727 17.1135 27.0426 15.1841 26.6794 14.7254Z" fill="#020101"/>
<path d="M10.6355 6.07262L12.0515 7.49189H12.114L13.5333 6.07262L14.9493 7.49189H15.0151L16.4311 6.07262L17.8504 7.49189H17.9129L19.3289 6.07262L20.5835 7.32395V0.165039H9.38086V7.32395L10.6355 6.07262Z" fill="#38A5DE"/>
<path d="M20.7488 7.7224L19.3295 6.30643L17.9794 7.65654H17.7818L16.4317 6.30643L15.0816 7.65654H14.884L13.5339 6.30643L12.1838 7.65654H11.9862L10.6361 6.30643L9.2168 7.7224V0.165039H9.54609V6.9288L10.6361 5.84212L12.085 7.29102L13.5339 5.84212L14.9828 7.29102L16.4317 5.84212L17.8806 7.29102L19.3295 5.84212L20.4195 6.9288V0.165039H20.7488V7.7224Z" fill="#4A95AA"/>
<path d="M22.7499 29.8018H7.21497C3.32696 29.8018 0.164062 26.6389 0.164062 22.7509V7.21594C0.164062 3.32794 3.32696 0.165039 7.21497 0.165039H22.7499C26.6379 0.165039 29.8008 3.32794 29.8008 7.21594V22.7509C29.8008 26.6389 26.6379 29.8018 22.7499 29.8018ZM7.21497 0.490714C3.50676 0.490714 0.489737 3.50773 0.489737 7.21594V22.7509C0.489737 26.4594 3.50676 29.4761 7.21497 29.4761H22.7499C26.4584 29.4761 29.4751 26.4591 29.4751 22.7509V7.21594C29.4751 3.50773 26.4581 0.490714 22.7499 0.490714H7.21497Z" fill="#BB9B6D"/>
</g>
<defs>
<clipPath id="clip0_1110_3891">
<rect width="30" height="30" fill="white"/>
</clipPath>
</defs>
</svg>
