<svg width="172" height="24" viewBox="0 0 172 24" fill="none" xmlns="http://www.w3.org/2000/svg">
<path d="M150.261 12C150.261 18.6274 144.888 24 138.261 24C131.633 24 126.261 18.6274 126.261 12C126.261 5.37258 131.633 0 138.261 0C144.888 0 150.261 5.37258 150.261 12Z" fill="#D90429"/>
<path d="M0 1.04303H5.25471L10.4497 9.05293L15.6149 1.04303H20.8696V21.9126H14.5102V14.4033L10.4497 20.661L6.3594 14.4033V21.9126H0V1.04303Z" fill="white"/>
<path d="M39.6522 8.99036C39.6522 10.4296 39.4109 11.6603 38.9284 12.6824C38.4458 13.6837 37.7824 14.4972 36.9379 15.1229C36.1136 15.7487 35.1385 16.2076 34.0126 16.4996C32.9068 16.7917 31.7105 16.9377 30.4237 16.9377V21.9126H24V1.04303H30.4237C31.7105 1.04303 32.9068 1.18904 34.0126 1.48107C35.1385 1.7731 36.1136 2.232 36.9379 2.85777C37.7824 3.48354 38.4458 4.30748 38.9284 5.32958C39.4109 6.33082 39.6522 7.55108 39.6522 8.99036ZM30.4237 11.3057H30.6951C31.5396 11.3057 32.1427 11.1076 32.5046 10.7112C32.8867 10.2941 33.0777 9.72043 33.0777 8.99036C33.0777 8.26029 32.8867 7.69709 32.5046 7.30077C32.1427 6.88358 31.5396 6.67499 30.6951 6.67499H30.4237V11.3057Z" fill="white"/>
<path d="M50.0873 1.04303H58.5322C59.6108 1.04303 60.5922 1.16818 61.4766 1.41849C62.3826 1.64794 63.1484 2.00255 63.7739 2.48231C64.421 2.94121 64.9171 3.52526 65.2623 4.23448C65.629 4.92283 65.8123 5.73633 65.8123 6.67499C65.8123 7.34249 65.726 7.91611 65.5535 8.39587C65.3809 8.85477 65.1976 9.24067 65.0034 9.55355C64.7662 9.92902 64.4965 10.2419 64.1945 10.4922C64.6691 10.7842 65.1005 11.1597 65.4888 11.6186C65.8123 12.0149 66.1035 12.5155 66.3624 13.1205C66.6428 13.7254 66.783 14.4659 66.783 15.342C66.783 16.3432 66.5997 17.2506 66.233 18.0641C65.8663 18.8776 65.3378 19.5764 64.6475 20.1604C63.9788 20.7236 63.1484 21.1617 62.1561 21.4746C61.1854 21.7666 60.0961 21.9126 58.8882 21.9126H50.0873V1.04303ZM57.5292 17.0003C59.1686 17.0003 59.9883 16.3954 59.9883 15.1855C59.9883 13.9757 59.1686 13.3708 57.5292 13.3708H56.7527V17.0003H57.5292ZM59.147 7.39463C59.147 6.43511 58.6077 5.95535 57.5292 5.95535H56.7527V8.83391H57.5292C58.6077 8.83391 59.147 8.35415 59.147 7.39463Z" fill="white"/>
<path d="M78.7662 21.9126C77.4189 21.9126 76.1999 21.7499 75.1093 21.4244C74.0186 21.099 73.0884 20.6108 72.3185 19.9599C71.5486 19.309 70.9498 18.4852 70.5221 17.4885C70.1158 16.4918 69.9126 15.3222 69.9126 13.9797V1.04303H76.7453V13.7051C76.7453 14.417 76.8949 14.9662 77.1943 15.3527C77.5151 15.7188 78.0391 15.9019 78.7662 15.9019C79.4933 15.9019 80.0065 15.7188 80.3059 15.3527C80.6267 14.9662 80.7871 14.417 80.7871 13.7051V1.04303H87.6518V13.9797C87.6518 15.3222 87.4379 16.4918 87.0102 17.4885C86.6039 18.4852 86.0051 19.309 85.2138 19.9599C84.444 20.6108 83.5137 21.099 82.4231 21.4244C81.3324 21.7499 80.1134 21.9126 78.7662 21.9126Z" fill="white"/>
<path d="M94.6382 6.51855H90.7823V1.04303H105.391V6.51855H101.535V21.9126H94.6382V6.51855Z" fill="white"/>
<path d="M112.377 6.51855H108.522V1.04303H123.13V6.51855H119.274V21.9126H112.377V6.51855Z" fill="white"/>
<path d="M153.391 1.04303H158.857L164.603 9.08422V1.04303H171.13V21.9126H165.634L159.918 13.9027V21.9126H153.391V1.04303Z" fill="white"/>
</svg>
