<svg width="133" height="48" viewBox="0 0 133 48" fill="none" xmlns="http://www.w3.org/2000/svg">
<rect width="48" height="48" rx="24" fill="#D90429"/>
<path fill-rule="evenodd" clip-rule="evenodd" d="M8.20117 18.1505C8.20117 17.637 8.61908 17.2207 9.1346 17.2207V18.1505V19.0802C8.61908 19.0802 8.20117 18.664 8.20117 18.1505ZM26.627 24.0079C26.627 23.0782 26.6271 23.0782 26.6271 23.0782H35.1796C37.0814 23.0782 37.8538 21.9519 37.8781 21.0541C37.8909 20.582 37.7114 20.1117 37.3165 19.7505C36.9219 19.3895 36.2458 19.0802 35.1796 19.0802H9.1346C9.13444 19.0802 9.1346 19.0802 9.1346 18.1505C9.1346 17.2207 9.13444 17.2207 9.1346 17.2207H35.1796C36.6138 17.2207 37.7733 17.6436 38.5793 18.3809C39.385 19.1179 39.7712 20.112 39.7443 21.1043C39.6893 23.1353 37.9612 24.9377 35.1796 24.9377H26.6271C26.6271 24.9377 26.627 24.9377 26.627 24.0079ZM26.627 24.0079L26.6271 23.0782C26.1116 23.0782 25.6936 23.4944 25.6936 24.0079C25.6936 24.5214 26.1116 24.9377 26.6271 24.9377L26.627 24.0079ZM24.3842 19.7855C24.7553 19.9179 25.0029 20.2682 25.0029 20.6608V29.9584C25.0029 30.4719 24.585 30.8881 24.0694 30.8881C23.5539 30.8881 23.136 30.4719 23.136 29.9584V23.2566L17.5341 30.0466C17.3597 30.258 17.1007 30.3822 16.826 30.386C16.5513 30.3898 16.2889 30.2729 16.1086 30.0664L10.068 23.147V29.9584C10.068 30.4719 9.65012 30.8881 9.1346 30.8881C8.61908 30.8881 8.20117 30.4719 8.20117 29.9584V20.6608C8.20117 20.2729 8.44291 19.9258 8.80764 19.79C9.17237 19.6541 9.58346 19.758 9.83897 20.0507L16.7928 28.0163L23.3483 20.0705C23.5985 19.7672 24.0131 19.6531 24.3842 19.7855Z" fill="white"/>
<path d="M61.0352 23.5254C61.7031 22.752 62.125 21.7324 62.125 20.6074C62.125 18.1465 60.0859 16.1074 57.625 16.1074H53.125C52.4922 16.1074 52 16.6348 52 17.2324V30.7324C52 31.3652 52.4922 31.8574 53.125 31.8574H58.75C61.2109 31.8574 63.25 29.8535 63.25 27.3574C63.25 25.7402 62.3359 24.2988 61.0352 23.5254ZM54.25 18.3926H57.625C58.8555 18.3926 59.875 19.377 59.875 20.6426C59.875 21.873 58.8555 22.8926 57.625 22.8926H54.25V18.3926ZM58.75 29.6074H54.25V25.1074H58.75C59.9805 25.1074 61 26.127 61 27.3574C61 28.623 59.9805 29.6074 58.75 29.6074Z" fill="white"/>
<path d="M76.75 17.2676V25.1777C76.75 28.834 73.6914 31.8926 70 31.8926C66.2734 31.8926 63.25 28.8691 63.25 25.1777V17.2676C63.25 16.6348 63.7422 16.1426 64.375 16.1426C64.9727 16.1426 65.5 16.6348 65.5 17.2676V25.1777C65.5 27.6387 67.5039 29.6426 70 29.6426C72.4609 29.6426 74.5 27.6387 74.5 25.1777V17.2676C74.5 16.6348 74.9922 16.1426 75.625 16.1426C76.2227 16.1426 76.75 16.6348 76.75 17.2676Z" fill="white"/>
<path d="M90.25 17.2676C90.25 17.8652 89.7227 18.3926 89.125 18.3926H84.625V30.7676C84.625 31.3652 84.0977 31.8574 83.5 31.8574C82.8672 31.8574 82.375 31.3652 82.375 30.7676V18.3926H77.875C77.2422 18.3926 76.75 17.8652 76.75 17.2676C76.75 16.6348 77.2422 16.1426 77.875 16.1426H89.125C89.7227 16.1426 90.25 16.6348 90.25 17.2676Z" fill="white"/>
<path d="M103.75 17.2676C103.75 17.8652 103.223 18.3926 102.625 18.3926H98.125V30.7676C98.125 31.3652 97.5977 31.8574 97 31.8574C96.3672 31.8574 95.875 31.3652 95.875 30.7676V18.3926H91.375C90.7422 18.3926 90.25 17.8652 90.25 17.2676C90.25 16.6348 90.7422 16.1426 91.375 16.1426H102.625C103.223 16.1426 103.75 16.6348 103.75 17.2676Z" fill="white"/>
<path d="M111.625 16.1426C107.266 16.1426 103.75 19.6582 103.75 24.0176C103.75 28.3418 107.266 31.8926 111.625 31.8926C115.949 31.8926 119.5 28.3418 119.5 24.0176C119.5 19.6582 115.949 16.1426 111.625 16.1426ZM111.625 29.6074C108.496 29.6074 106 27.1113 106 23.9824C106 20.8887 108.496 18.3926 111.625 18.3926C114.719 18.3926 117.25 20.9238 117.25 23.9824C117.25 27.0762 114.719 29.6074 111.625 29.6074Z" fill="white"/>
<path d="M133 17.2676V30.7676C133 31.2246 132.684 31.6465 132.227 31.8223C132.121 31.8574 131.98 31.8574 131.875 31.8574C131.523 31.8574 131.207 31.7168 130.996 31.4707L121.75 20.3613V30.7324C121.75 31.3652 121.223 31.8574 120.625 31.8574C119.992 31.8574 119.5 31.3652 119.5 30.7324V17.2324C119.5 16.7754 119.781 16.3535 120.238 16.1777C120.66 16.0371 121.152 16.1777 121.469 16.5293L130.75 27.6387V17.2324C130.75 16.6348 131.242 16.1074 131.875 16.1074C132.473 16.1074 133 16.6348 133 17.2676Z" fill="white"/>
</svg>
