<svg width="172" height="26" viewBox="0 0 172 26" fill="none" xmlns="http://www.w3.org/2000/svg">
<path d="M150.262 13.043C150.262 19.6704 144.889 25.043 138.262 25.043C131.634 25.043 126.262 19.6704 126.262 13.043C126.262 6.41555 131.634 1.04297 138.262 1.04297C144.889 1.04297 150.262 6.41555 150.262 13.043Z" fill="#F40009"/>
<path d="M0 2.08594H5.25471L10.4497 10.0958L15.6149 2.08594H20.8696V22.9555H14.5102V15.4462L10.4497 21.704L6.3594 15.4462V22.9555H0V2.08594Z" fill="white"/>
<path d="M39.6522 10.0333C39.6522 11.4725 39.4109 12.7032 38.9284 13.7253C38.4458 14.7266 37.7824 15.5401 36.9379 16.1659C36.1136 16.7916 35.1385 17.2505 34.0126 17.5426C32.9068 17.8346 31.7105 17.9806 30.4237 17.9806V22.9555H24V2.08594H30.4237C31.7105 2.08594 32.9068 2.23195 34.0126 2.52398C35.1385 2.81601 36.1136 3.27491 36.9379 3.90068C37.7824 4.52646 38.4458 5.35039 38.9284 6.37249C39.4109 7.37373 39.6522 8.59399 39.6522 10.0333ZM30.4237 12.3486H30.6951C31.5396 12.3486 32.1427 12.1505 32.5046 11.7541C32.8867 11.337 33.0777 10.7633 33.0777 10.0333C33.0777 9.3032 32.8867 8.74 32.5046 8.34368C32.1427 7.9265 31.5396 7.71791 30.6951 7.71791H30.4237V12.3486Z" fill="white"/>
<path d="M50.0859 2.08594H58.5308C59.6094 2.08594 60.5908 2.21109 61.4752 2.4614C62.3812 2.69085 63.1469 3.04546 63.7725 3.52522C64.4196 3.98412 64.9157 4.56818 65.2609 5.27739C65.6276 5.96574 65.8109 6.77924 65.8109 7.71791C65.8109 8.3854 65.7246 8.95902 65.5521 9.43878C65.3795 9.89768 65.1962 10.2836 65.002 10.5965C64.7647 10.9719 64.4951 11.2848 64.1931 11.5351C64.6677 11.8272 65.0991 12.2026 65.4874 12.6615C65.8109 13.0578 66.1021 13.5585 66.361 14.1634C66.6414 14.7683 66.7816 15.5088 66.7816 16.3849C66.7816 17.3861 66.5982 18.2935 66.2315 19.107C65.8648 19.9205 65.3364 20.6193 64.6461 21.2033C63.9774 21.7665 63.1469 22.2046 62.1547 22.5175C61.184 22.8095 60.0947 22.9555 58.8867 22.9555H50.0859V2.08594ZM57.5278 18.0432C59.1672 18.0432 59.9869 17.4383 59.9869 16.2284C59.9869 15.0186 59.1672 14.4137 57.5278 14.4137H56.7513V18.0432H57.5278ZM59.1456 8.43754C59.1456 7.47802 58.6063 6.99826 57.5278 6.99826H56.7513V9.87683H57.5278C58.6063 9.87683 59.1456 9.39707 59.1456 8.43754Z" fill="white"/>
<path d="M78.7676 22.9555C77.4203 22.9555 76.2013 22.7928 75.1107 22.4673C74.02 22.1419 73.0898 21.6537 72.3199 21.0028C71.55 20.3519 70.9513 19.5281 70.5235 18.5314C70.1172 17.5347 69.9141 16.3651 69.9141 15.0226V2.08594H76.7467V14.748C76.7467 15.46 76.8964 16.0092 77.1958 16.3956C77.5165 16.7618 78.0405 16.9448 78.7676 16.9448C79.4947 16.9448 80.0079 16.7618 80.3073 16.3956C80.6281 16.0092 80.7885 15.46 80.7885 14.748V2.08594H87.6532V15.0226C87.6532 16.3651 87.4393 17.5347 87.0116 18.5314C86.6053 19.5281 86.0065 20.3519 85.2153 21.0028C84.4454 21.6537 83.5151 22.1419 82.4245 22.4673C81.3338 22.7928 80.1149 22.9555 78.7676 22.9555Z" fill="white"/>
<path d="M94.6372 7.56146H90.7812V2.08594H105.39V7.56146H101.534V22.9555H94.6372V7.56146Z" fill="white"/>
<path d="M112.379 7.56146H108.523V2.08594H123.132V7.56146H119.276V22.9555H112.379V7.56146Z" fill="white"/>
<path d="M153.391 2.08594H158.856L164.603 10.1271V2.08594H171.13V22.9555H165.633L159.918 14.9456V22.9555H153.391V2.08594Z" fill="white"/>
</svg>
