<svg width="80" height="37" viewBox="0 0 80 37" fill="none" xmlns="http://www.w3.org/2000/svg">
<g clip-path="url(#clip0_921_2492)">
<path d="M9.33222 23.1986C11.4045 22.9379 13.0777 21.2825 13.3414 19.2324C13.7276 16.2249 11.1593 13.684 8.1192 14.0663C6.04689 14.3268 4.37357 15.9822 4.11022 18.0323C3.72361 21.0399 6.29223 23.5809 9.33222 23.1986ZM9.61606 10.0437C13.6997 10.4438 17.0029 13.7116 17.4073 17.7519C17.9539 23.2112 13.3541 27.7617 7.83536 27.221C3.7517 26.8209 0.448521 23.5533 0.0442355 19.5132C-0.502632 14.0537 4.09733 9.50317 9.61606 10.0437ZM22.0894 10.3853H34.863C35.3479 10.3853 35.6235 10.9345 35.3305 11.3166L26.4938 22.8503H33.4175C34.6794 22.8503 35.6732 23.9862 35.4112 25.2807C35.219 26.2299 34.3194 26.8783 33.3408 26.8783H19.4688C18.9883 26.8783 18.7152 26.3343 19.0053 25.9556L27.8489 14.4133H22.1661C21.1875 14.4133 20.2879 13.7651 20.0958 12.8158C19.8337 11.5213 20.8275 10.3853 22.0894 10.3853ZM77.5218 10.4312C78.8394 10.1568 80 11.1439 80 12.3991V26.2974C80 26.7823 79.434 27.0528 79.0498 26.7514L68.0309 18.1034V24.8679C68.0309 26.1231 66.8702 27.11 65.5526 26.8358C64.6076 26.6392 63.9593 25.7691 63.9593 24.8143V10.9662C63.9593 10.4812 64.5253 10.2106 64.9093 10.512L75.9286 19.1603L75.9284 12.4527C75.9284 11.4977 76.5772 10.6278 77.5218 10.4312ZM48.8314 10C55.5772 10 61.0462 13.8639 61.0462 18.6301C61.0462 23.3962 55.5773 27.2601 48.8314 27.2601C42.0853 27.2601 36.6164 23.3962 36.6164 18.6301C36.6164 13.8639 42.0851 10 48.8314 10ZM48.8314 14.028C44.1706 14.028 40.6882 16.4577 40.6882 18.6301C40.6882 20.8024 44.1706 23.2321 48.8314 23.2321C53.492 23.2321 56.9744 20.8024 56.9744 18.6301C56.9744 16.4579 53.492 14.028 48.8314 14.028Z" fill="#005BFF"/>
</g>
<defs>
<clipPath id="clip0_921_2492">
<rect width="80" height="37" fill="white"/>
</clipPath>
</defs>
</svg>
