<svg width="30" height="30" viewBox="0 0 30 30" fill="none" xmlns="http://www.w3.org/2000/svg">
<g clip-path="url(#clip0_1109_3836)">
<path d="M30 6V23.16C30 23.2425 30 23.325 30 23.4C29.9378 25.1722 29.1898 26.8509 27.9137 28.0822C26.6376 29.3135 24.9333 30.0011 23.16 30H6C4.4087 30 2.88258 29.3679 1.75736 28.2426C0.632141 27.1174 0 25.5913 0 24V6C0 4.4087 0.632141 2.88258 1.75736 1.75736C2.88258 0.632141 4.4087 0 6 0H24C25.5913 0 27.1174 0.632141 28.2426 1.75736C29.3679 2.88258 30 4.4087 30 6Z" fill="#005AFE"/>
<path d="M29.9996 23.3995C29.9374 25.1717 29.1893 26.8504 27.9133 28.0817C26.6372 29.313 24.9328 30.0006 23.1596 29.9995H12.5996C12.8021 28.1995 12.9971 26.3995 13.1996 24.592C13.4321 22.477 13.6571 20.3695 13.8896 18.2545L13.9421 17.797L14.5721 18.1045C17.1446 19.207 21.0821 18.0595 22.3871 15.307C22.3871 15.307 22.3871 15.307 22.3871 15.2695H22.4246L29.9996 23.3995Z" fill="#FE0050"/>
<path d="M1.5 22.9051C0.99048 22.9338 0.480388 22.8598 0 22.6876V20.7226C0.1575 20.6551 0.2625 20.7751 0.3825 20.8351C0.760806 21.05 1.20569 21.1161 1.63013 21.0204C2.05457 20.9247 2.42804 20.6741 2.6775 20.3176C2.93324 19.969 3.06736 19.546 3.05923 19.1137C3.0511 18.6814 2.90117 18.2638 2.6325 17.9251C2.36779 17.6016 2.00222 17.3763 1.5943 17.2852C1.18637 17.1941 0.759675 17.2425 0.3825 17.4226C0.2625 17.4826 0.1575 17.6026 0.0075 17.5651V15.6226L0.0525 15.5776C0.879891 15.3028 1.77854 15.335 2.58415 15.6683C3.38976 16.0015 4.04852 16.6136 4.44 17.3926C4.73354 17.9369 4.88789 18.5454 4.88931 19.1638C4.89073 19.7823 4.73917 20.3915 4.44814 20.9372C4.15711 21.4829 3.73564 21.9481 3.22126 22.2914C2.70688 22.6348 2.11558 22.8456 1.5 22.9051Z" fill="#FEFEFE"/>
<path d="M30.0005 14.25L25.5005 12.285H25.4405V12.345C25.628 13.05 25.8005 13.7025 25.9805 14.3625C26.048 14.61 26.1155 14.865 26.1755 15.1125C26.2075 15.2228 26.2174 15.3383 26.2045 15.4524C26.1916 15.5666 26.1563 15.677 26.1005 15.7774C26.0447 15.8779 25.9696 15.9662 25.8795 16.0374C25.7894 16.1087 25.6861 16.1614 25.5755 16.1925C25.4672 16.2231 25.3538 16.2318 25.242 16.2181C25.1303 16.2044 25.0224 16.1686 24.9246 16.1127C24.8269 16.0568 24.7412 15.9821 24.6727 15.8927C24.6042 15.8034 24.5541 15.7013 24.5255 15.5925C24.3305 14.9475 24.1655 14.3025 23.993 13.65C23.663 12.4125 23.3255 11.1825 22.9955 9.93745C22.9955 9.78745 22.8605 9.61495 22.9955 9.47995C23.1305 9.34495 23.3105 9.47995 23.453 9.51745L28.5005 11.7L28.778 11.8125C28.5905 11.0625 28.4105 10.4325 28.2305 9.76495C28.163 9.50245 28.088 9.24745 28.028 8.97745C27.9998 8.8696 27.9931 8.75724 28.0084 8.64681C28.0237 8.53638 28.0606 8.43005 28.117 8.3339C28.1734 8.23776 28.2483 8.15369 28.3372 8.08652C28.4262 8.01935 28.5276 7.97039 28.6355 7.94245C28.7433 7.90957 28.8567 7.89893 28.9688 7.91118C29.0809 7.92343 29.1893 7.95831 29.2875 8.01372C29.3856 8.06912 29.4715 8.14389 29.54 8.23349C29.6084 8.32308 29.6579 8.42565 29.6855 8.53495C29.798 8.91745 29.8955 9.28495 29.993 9.68995L30.0005 14.25Z" fill="#FEFEFE"/>
<path d="M21.1267 11.4754C20.0366 10.8454 18.7593 10.6197 17.5192 10.8379C16.0041 10.9966 14.5962 11.6938 13.5517 12.8029C13.1339 13.1981 12.8242 13.6937 12.6522 14.2424C12.4802 14.7912 12.4516 15.3749 12.5692 15.9379C12.7724 16.7104 13.2635 17.3759 13.9417 17.7979L14.5717 18.1054C17.1442 19.2079 21.0817 18.0604 22.3867 15.3079C22.3867 15.3079 22.3867 15.3079 22.3867 15.2704H22.4242C22.4242 15.2254 22.4242 15.1729 22.4242 15.1279C22.691 14.4656 22.7063 13.7286 22.4673 13.0559C22.2283 12.3831 21.7515 11.8209 21.1267 11.4754ZM20.3767 15.2254C19.9319 15.7056 19.3939 16.0903 18.7956 16.3559C18.1974 16.6215 17.5513 16.7625 16.8967 16.7704C16.1604 16.8148 15.428 16.6343 14.7967 16.2529C14.6544 16.1794 14.5292 16.0768 14.4292 15.9518C14.3292 15.8267 14.2567 15.682 14.2164 15.527C14.1761 15.3721 14.1688 15.2104 14.1952 15.0524C14.2215 14.8945 14.2808 14.7439 14.3692 14.6104C14.8532 13.7607 15.6454 13.1297 16.5817 12.8479C17.5801 12.4475 18.6878 12.413 19.7092 12.7504C21.0742 13.1929 21.3517 14.1754 20.3992 15.2404L20.3767 15.2254Z" fill="#FEFEFE"/>
<path d="M20.4002 15.2396C19.9554 15.7199 19.4174 16.1045 18.8191 16.3701C18.2209 16.6357 17.5748 16.7768 16.9202 16.7846C16.1839 16.829 15.4516 16.6486 14.8202 16.2671C14.6779 16.1937 14.5527 16.0911 14.4527 15.966C14.3527 15.841 14.2802 15.6962 14.2399 15.5413C14.1996 15.3863 14.1923 15.2246 14.2187 15.0667C14.245 14.9087 14.3043 14.7581 14.3927 14.6246C14.8767 13.775 15.6689 13.1439 16.6052 12.8621C17.5951 12.4623 18.694 12.4225 19.7102 12.7496C21.0752 13.1921 21.3527 14.1746 20.4002 15.2396Z" fill="#FEFEFE"/>
<path d="M11.6927 18.1347L8.96273 18.8847L9.12773 18.4572C9.82273 16.7122 10.5177 14.9622 11.2127 13.2072C11.2652 13.0797 11.3477 12.9522 11.2127 12.8097C11.0777 12.6672 10.9952 12.7047 10.8602 12.7422C9.15023 13.1997 7.43273 13.6497 5.72273 14.1147C5.61193 14.1399 5.50716 14.1865 5.4144 14.2522C5.32164 14.3178 5.24272 14.401 5.18212 14.4971C5.05976 14.6912 5.01951 14.926 5.07023 15.1497C5.12095 15.3735 5.25849 15.568 5.45259 15.6903C5.64669 15.8127 5.88145 15.853 6.10523 15.8022C6.37123 15.7523 6.63416 15.6872 6.89273 15.6072L8.52773 15.1797L8.37773 15.5772C7.67273 17.3322 6.97523 19.0947 6.27773 20.8272C6.22523 20.9547 6.15023 21.0897 6.27773 21.2247C6.40523 21.3597 6.49523 21.3222 6.63023 21.2922L12.2102 19.7922C12.3543 19.7565 12.4871 19.6848 12.5959 19.5838C12.7048 19.4828 12.7863 19.3558 12.8327 19.2147C12.8869 19.0711 12.8988 18.9148 12.8669 18.7646C12.835 18.6144 12.7606 18.4765 12.6527 18.3672C12.5351 18.2357 12.3803 18.1431 12.2089 18.1015C12.0374 18.06 11.8574 18.0716 11.6927 18.1347Z" fill="#FEFEFE"/>
<path d="M20.4002 15.2396C19.9554 15.7199 19.4174 16.1045 18.8191 16.3701C18.2209 16.6357 17.5748 16.7768 16.9202 16.7846C16.1839 16.829 15.4516 16.6486 14.8202 16.2671C14.6779 16.1937 14.5527 16.0911 14.4527 15.966C14.3527 15.841 14.2802 15.6962 14.2399 15.5413C14.1996 15.3863 14.1923 15.2246 14.2187 15.0667C14.245 14.9087 14.3043 14.7581 14.3927 14.6246C14.8767 13.775 15.6689 13.1439 16.6052 12.8621C17.5951 12.4623 18.694 12.4225 19.7102 12.7496C21.0752 13.1921 21.3527 14.1746 20.4002 15.2396Z" fill="#FE0050"/>
</g>
<defs>
<clipPath id="clip0_1109_3836">
<rect width="30" height="30" fill="white"/>
</clipPath>
</defs>
</svg>
