<svg width="30" height="30" viewBox="0 0 30 30" fill="none" xmlns="http://www.w3.org/2000/svg">
<g clip-path="url(#clip0_1110_3881)">
<path fill-rule="evenodd" clip-rule="evenodd" d="M29.2286 3.59514C28.9097 3.01096 28.547 2.47764 28.081 2.01064C27.6132 1.54213 27.0604 1.12154 26.4752 0.801973C25.493 0.265723 24.2734 -0.00146484 23.0765 -0.00146484H6.9223C5.6984 -0.00146484 4.51504 0.27334 3.49281 0.812871C2.9043 1.1233 2.36922 1.53311 1.91055 1.99951C1.44977 2.46803 1.0327 2.9942 0.733281 3.58998C0.230664 4.58994 -0.00195312 5.75525 -0.00195312 6.9474V23.0524C-0.00195312 24.2626 0.193867 25.4757 0.735859 26.4666C1.05004 27.0408 1.46137 27.6221 1.91793 28.0831C2.37895 28.5485 2.92375 28.9299 3.50031 29.2498C4.4923 29.8006 5.70836 30.0013 6.9223 30.0013H23.0765C24.3149 30.0013 25.467 29.8229 26.4728 29.2512C27.0282 28.9358 27.6305 28.5349 28.0768 28.0833C28.5365 27.6182 28.9205 27.0461 29.2353 26.4663C29.7704 25.4801 30.0009 24.2545 30.0009 23.0524V6.9474C30.0009 5.73955 29.7687 4.58479 29.2286 3.59514Z" fill="#FE7500"/>
<path fill-rule="evenodd" clip-rule="evenodd" d="M25.5374 9.85287C24.406 7.67002 20.564 7.16072 17.3195 7.84029C16.6178 7.98326 15.9157 8.126 15.2138 8.26896C14.7667 8.38697 14.3194 8.50498 13.8722 8.62299H13.8536C13.8474 8.59814 13.8412 8.5733 13.835 8.54846C14.043 8.18494 14.4325 7.70084 14.4872 7.24404C13.5618 6.98939 12.6361 6.73463 11.7107 6.47998C11.4995 7.03275 11.2884 7.58576 11.0771 8.13842C10.6196 9.19955 10.0224 10.1678 9.36273 11.0267C9.15203 11.3012 8.91801 11.6484 8.6173 11.8279C8.59867 11.8528 8.58004 11.8776 8.56141 11.9026C8.70461 12.0668 10.2147 12.9217 10.4621 12.9834C10.8471 12.5735 11.2323 12.1635 11.6174 11.7535C11.7354 11.6045 11.8534 11.4553 11.9714 11.3063C12.3938 11.1262 12.8162 10.9461 13.2386 10.766C13.251 10.7846 13.2634 10.8033 13.2759 10.8219C12.7787 11.786 11.9206 13.1448 11.1142 13.9712V14.0085C11.4869 14.3437 11.8596 14.6794 12.2323 15.0146H12.2696C12.6484 14.6482 13.0274 14.2816 13.4063 13.9152C13.5926 13.7164 13.9654 13.3189 13.9654 13.3189L14.9876 13.316L14.9827 15.0888C14.9827 15.0888 12.3837 15.0893 11.0584 15.0893C11.0584 15.524 11.0584 16.4468 11.0584 16.4468L14.9873 16.4495C14.9873 16.4495 14.9854 19.406 14.9854 19.7665C14.7522 19.8275 14.4505 19.7721 14.2635 19.7292C13.0395 19.4489 13.2347 18.5764 13.369 17.2882H10.6112C10.2921 18.2757 10.4506 19.7136 10.8162 20.3069C11.1179 20.7964 11.3266 21.1358 11.9716 21.425C12.4674 21.6473 13.0947 21.6674 13.8164 21.6672C15.8912 21.667 17.5889 21.3049 18.9596 20.6052C19.365 20.398 19.7731 20.2051 20.0962 19.9156H20.1708C20.2371 20.1913 20.4379 21.2117 20.5994 21.3505C21.3197 21.0399 22.0405 20.7293 22.761 20.4188C22.2702 19.2076 21.7795 17.9961 21.2888 16.785C21.1225 16.7559 19.566 17.2533 19.4812 17.3627C19.5868 17.7726 19.6923 18.1827 19.7979 18.5926C19.3646 18.9008 18.8308 19.2317 18.2513 19.3753C18.1383 19.2548 18.1954 18.8303 18.1954 18.6112C18.1954 17.9032 18.1954 16.4288 18.1954 16.4288L22.0548 16.431L22.0527 15.0711L18.2064 15.0704L18.2059 13.3142L22.0527 13.3163V11.9401L15.2698 11.9402C15.2698 11.9402 15.2559 11.9407 15.2325 11.8843C15.5665 11.432 15.9395 11.0341 16.1643 10.4681C16.158 10.4557 16.1518 10.4431 16.1455 10.4308C15.7915 10.3377 15.4374 10.2444 15.0835 10.1512C15.0711 10.1202 15.0586 10.0892 15.0463 10.0581C15.6923 9.85311 16.3383 9.64814 16.9843 9.44318C18.8518 8.86439 21.8887 8.4874 22.7423 10.2259C23.0811 10.9155 22.9846 12.0997 22.9845 13.1142V18.276C22.9846 19.6773 23.1251 20.6018 22.3598 21.433C21.7232 22.0333 20.9706 22.1236 20.4399 22.1145C19.909 22.1056 19.1991 21.8982 18.4936 21.7418H18.475C18.3763 22.0278 18.1152 23.0037 18.087 23.3258C18.6391 23.4553 19.2658 23.5414 19.8725 23.6426C20.4459 23.7381 21.2273 23.7286 21.7709 23.66C24.012 23.3772 25.036 22.6387 25.6865 21.0337C26.4872 18.4759 26.293 11.2096 25.5374 9.85287ZM8.07297 10.3374C10.3529 9.84549 10.068 6.72771 7.40207 6.77822C7.2468 6.80939 7.09152 6.84033 6.93613 6.87139C6.36121 7.07529 5.89316 7.49131 5.68762 8.064C5.19637 9.43334 6.7157 10.6303 8.07297 10.3374ZM8.55566 13.2972C8.17059 12.9255 7.76172 12.5532 7.4248 12.294C7.10465 12.0477 6.25527 11.2429 5.8968 11.1573C5.49309 11.797 5.08926 12.437 4.68555 13.0767C4.90914 13.2133 5.13273 13.35 5.35633 13.4866C5.90242 13.8559 6.48203 14.1894 6.99848 14.5086C7.4152 14.7953 7.75691 15.1022 7.92789 15.4806C8.21851 16.0877 7.89062 16.8166 7.62977 17.2135C6.92031 18.2932 5.95574 19.1857 5.0582 20.0832C4.33141 20.8101 3.69531 21.3691 3.69531 21.3691C3.69531 21.3691 4.08297 21.5927 4.25688 21.7045C5.34895 22.3794 6.64457 23.28 6.77254 23.2512C7.57469 21.3324 8.5934 19.6707 9.26957 17.6048C9.52645 16.8201 9.8725 15.6496 9.58644 14.6791C9.41605 14.102 9.00391 13.7298 8.55566 13.2972Z" fill="white"/>
</g>
<defs>
<clipPath id="clip0_1110_3881">
<rect width="30" height="30" fill="white"/>
</clipPath>
</defs>
</svg>
