<svg width="32" height="32" viewBox="0 0 32 32" fill="none" xmlns="http://www.w3.org/2000/svg">
<path d="M0 5C0 2.23858 2.23858 0 5 0H27C29.7614 0 32 2.23858 32 5V27C32 29.7614 29.7614 32 27 32H5C2.23858 32 0 29.7614 0 27V5Z" fill="white"/>
<path d="M8 15.6667C8 12.0526 8 10.2455 9.12276 9.12276C10.2455 8 12.0526 8 15.6667 8H16.3333C19.9474 8 21.7545 8 22.8772 9.12276C24 10.2455 24 12.0526 24 15.6667V16.3333C24 19.9474 24 21.7545 22.8772 22.8772C21.7545 24 19.9474 24 16.3333 24H15.6667C12.0526 24 10.2455 24 9.12276 22.8772C8 21.7545 8 19.9474 8 16.3333L8 15.6667Z" fill="#2787F5"/>
<path fill-rule="evenodd" clip-rule="evenodd" d="M12.3327 13H11.1657C10.8323 13 10.7656 13.1569 10.7656 13.3299C10.7656 13.639 11.1612 15.1716 12.6077 17.1986C13.572 18.5829 14.9306 19.3333 16.1669 19.3333C16.9087 19.3333 17.0004 19.1667 17.0004 18.8796V17.8333C17.0004 17.5 17.0707 17.4335 17.3056 17.4335C17.4787 17.4335 17.7754 17.52 18.4677 18.1874C19.2589 18.9785 19.3894 19.3333 19.8344 19.3333H21.0013C21.3348 19.3333 21.5015 19.1667 21.4053 18.8378C21.3001 18.51 20.9223 18.0343 20.421 17.4706C20.149 17.1492 19.7411 16.8031 19.6174 16.6301C19.4444 16.4076 19.4938 16.3087 19.6174 16.111C19.6174 16.111 21.0392 14.1086 21.1875 13.4289C21.2617 13.1816 21.1875 13 20.8346 13H19.6677C19.371 13 19.2342 13.1569 19.16 13.3299C19.16 13.3299 18.5666 14.7761 17.7259 15.7154C17.4539 15.9873 17.3303 16.0739 17.1819 16.0739C17.1078 16.0739 17.0004 15.9873 17.0004 15.7402V13.4289C17.0004 13.1322 16.9143 13 16.667 13H14.8332C14.6478 13 14.5363 13.1377 14.5363 13.2682C14.5363 13.5494 14.9566 13.6142 15 14.4053V16.1233C15 16.5 14.9319 16.5683 14.7836 16.5683C14.388 16.5683 13.4257 15.1157 12.8549 13.4536C12.7431 13.1305 12.6309 13 12.3327 13Z" fill="white"/>
</svg>
