<svg width="30" height="30" viewBox="0 0 30 30" fill="none" xmlns="http://www.w3.org/2000/svg">
<g clip-path="url(#clip0_1109_3845)">
<path d="M0 6C0 2.68629 2.68629 0 6 0H24C27.3137 0 30 2.68629 30 6V24C30 27.3137 27.3137 30 24 30H6C2.68629 30 0 27.3137 0 24V6Z" fill="url(#paint0_linear_1109_3845)"/>
<path fill-rule="evenodd" clip-rule="evenodd" d="M3 10.5007L5.8273 20.9234L7.95964 20.9214L10.2202 13.1358L12.4786 20.9194L14.6283 20.9216L17.4568 10.5L15.6023 10.5027L13.4202 18.5484L11.0839 10.5007L9.35507 10.5L7.02693 18.5059L4.85462 10.5007H3ZM25.5457 20.0691C26.1667 19.5044 26.4708 18.7956 26.4708 17.9427C26.4708 16.8614 25.9108 15.9964 24.9856 15.5159C25.6916 14.9993 26.0571 14.3025 26.0571 13.3894C26.0571 12.5725 25.7649 11.8877 25.1558 11.3351C24.5592 10.7945 23.8289 10.5061 22.9644 10.5061H18.776V20.9221H23.2932C24.194 20.9221 24.9247 20.6338 25.5457 20.0691ZM20.517 14.8551V12.116H22.9763C23.7436 12.116 24.328 12.7166 24.328 13.4855C24.328 14.2544 23.7436 14.8551 22.9763 14.8551H20.517ZM24.7421 17.8586C24.7421 18.6755 24.1087 19.3122 23.3052 19.3122V19.3242H20.517V16.4049H23.3052C24.1087 16.4049 24.7421 17.0416 24.7421 17.8586Z" fill="white"/>
</g>
<defs>
<linearGradient id="paint0_linear_1109_3845" x1="30" y1="-8.9407e-07" x2="8.9407e-07" y2="30" gradientUnits="userSpaceOnUse">
<stop stop-color="#491174"/>
<stop offset="1" stop-color="#CC10AC"/>
</linearGradient>
<clipPath id="clip0_1109_3845">
<rect width="30" height="30" fill="white"/>
</clipPath>
</defs>
</svg>
